<svg xmlns="http://www.w3.org/2000/svg" viewBox="0 0 41.8 41.42"><defs><style>.cls-1{fill:#2e9a9d;}</style></defs><title>Ресурс 1</title><g id="Слой_2" data-name="Слой 2"><g id="Слой_1-2" data-name="Слой 1"><path class="cls-1" d="M3.56,40.88c0-3.62,0-7.24.05-10.86,0-.71-.42-1.29-.38-2,.24-.21.43,0,.64.07a11.61,11.61,0,0,0,1.76,0H36.13a8.38,8.38,0,0,0,1.55-.06.8.8,0,0,1,.57,0,.57.57,0,0,1,0,.61c-.12.14-.22.31-.45.3s-.74-.15-1,.19,0,.68-.11,1a.55.55,0,0,1-.36.4c-.45-.18-.37-.59-.39-.94,0-.51-.27-.72-.78-.64a1.73,1.73,0,0,0-.59.08c-.24.31-.14.66-.14,1q0,4.33,0,8.65c0,.43-.12.91.38,1.19.25.27.13.44-.15.57-2,.25-4,0-6,.12a23.12,23.12,0,0,0-4.19.14.53.53,0,0,1-.38,0,.82.82,0,0,1,0-1.06.6.6,0,0,1,.56,0c2.66.14,5.32.06,8,.06.65,0,.93-.31.94-.95,0-2.94,0-5.88,0-8.82,0-.79-.43-1-1.12-1-1.66,0-3.32,0-5,0-6,0-12,0-18,0-1.54,0-1.57,0-1.58,1.56,0,2.63,0,5.25,0,7.88,0,1.21.1,1.3,1.29,1.32,2.21,0,4.42,0,6.64,0a4,4,0,0,1,1.44.14c.33.18.38.37,0,.57a10.75,10.75,0,0,1-2.68.11c-2.24,0-4.49,0-6.73,0a2.72,2.72,0,0,1-1.22-.15c-.24-.14-.17-.3,0-.47A.89.89,0,0,0,7,39.1C7,36,7,32.85,7,29.72c0-.23.05-.5-.27-.59a3.88,3.88,0,0,0-.46-.05c-.62.06-.52.57-.53.94-.06,2.85.06,5.71,0,8.56a9.77,9.77,0,0,1-.12,2.55,6.39,6.39,0,0,1-1.83.08A.25.25,0,0,1,3.56,40.88Z"/><path class="cls-1" d="M34.06,8.52a19,19,0,0,1,.1,3.29c-.1,4.63,0,9.26-.06,13.9,0,.59.38.74.69,1a.3.3,0,0,1-.19.19c-.36,0-.68.25-1.06.13-.16-.15-.1-.32-.06-.5a1.65,1.65,0,0,0,.11-.48c-.09-.38-.49-.25-.69-.43a.3.3,0,0,1-.1-.26l.08-.13a1.21,1.21,0,0,1,.27-.16l.29-.13c.21-.23.15-.52.15-.79q0-5.29,0-10.57c0-.29.11-.63-.21-.85l-.32-.07-.33-.06a1.92,1.92,0,0,0-.53-.07H9a1.17,1.17,0,0,0-.52.13,1.14,1.14,0,0,0-.28.21A2.58,2.58,0,0,0,8,14.2c0,3.68,0,7.35,0,11a.79.79,0,0,1-.27.52q-.23.09-.28-.15c0-4.33,0-8.66,0-13,0-.29-.13-.63.22-.84,6.7-.07,13.4,0,20.1,0H10.2A3.12,3.12,0,0,1,9,11.61c-.37-.2-.36-.47-.16-.78a.73.73,0,0,1,.28-.2c1.07.13,2.15-.44,3.21.08l.27.11a2,2,0,0,0,1.47,0,1.54,1.54,0,0,1,.53-.17.65.65,0,0,1,.27.08.92.92,0,0,0,1.1.11c0-.17,0-.34.05-.5,0-.71,0-1.42,0-2.15-.38.21-.66.59-1.13.59a1.3,1.3,0,0,1-.8-.86.48.48,0,0,1,.1-.27C15.91,8,16.25,7,15.8,5.41c.23-.34.49-.5.81-.1a20.4,20.4,0,0,1,.16,4.22c0,1.3.06,1.35,1.33,1.36h5.38c1.31,0,1.36-.07,1.38-1.43s0-2.76,0-4.14c.38-.51.68-.3,1,.11a4.48,4.48,0,0,0-.11,2,1.48,1.48,0,0,1,0,.3,5.66,5.66,0,0,0,.12,2.7.5.5,0,0,1,.22.3c.16.49.54.15.81.2a1.15,1.15,0,0,0,.36-.18,2.26,2.26,0,0,1,2-.35,6.18,6.18,0,0,0,3.25,0,.56.56,0,0,1,.41-.07c.25.11.34.52.74.4,0-.41-.48-.31-.61-.57a.35.35,0,0,1,.18-.35c.58-.24.37-.87.62-1.27A.17.17,0,0,1,34.06,8.52Z"/><path class="cls-1" d="M38.24,28l-.18.19a2.24,2.24,0,0,1-1.12.1H5.35c-.21,0-.39,0-.42-.29a.39.39,0,0,1,.32-.41.7.7,0,0,0,.81,0,3.76,3.76,0,0,1,2.16.07c-.05-.18-.57-.31-.28-.66s.51,0,.75.08a3.14,3.14,0,0,0,1.22.1c.29,0,.57.11.86.15a2.2,2.2,0,0,0,1.31-.07c.66,0,1.28.57,2,.12a.7.7,0,0,1,.42-.14,4.13,4.13,0,0,0,1,0c4.33.42,8.67.18,13,.22a1.32,1.32,0,0,1,.31-.06,4.05,4.05,0,0,0,1.54-.17c.33,0,.64.28,1,.06.41,0,.82,0,1.22,0a1.61,1.61,0,0,1,.26.13,20.56,20.56,0,0,0,3.15.06.88.88,0,0,0,.28-.1l.42,0a2.26,2.26,0,0,0,1.18.09.45.45,0,0,1,.24.12Z"/><path class="cls-1" d="M3.56,40.88A2.4,2.4,0,0,0,5.64,41a.61.61,0,0,1,.55-.2,5.07,5.07,0,0,0,1.13.07h26.6a4.59,4.59,0,0,0,1-.06A2.26,2.26,0,0,1,36,40.69a9.17,9.17,0,0,0,2.08.19l.16,0H41.8c-.37.63-.83.4-1.18.4q-13.94,0-27.87,0c-4,0-8.08,0-12.12,0-.15,0-.83.43-.56-.36a14,14,0,0,0,3.31,0Z"/><path class="cls-1" d="M37.9,28.86l.38-.2V40.91h-.14c-.16,0-.15-.38-.39-.16a.35.35,0,0,1-.22-.31c0-.4.23-.79.12-1.2s.08-.71,0-1.06a2.36,2.36,0,0,1,0-.26,10.61,10.61,0,0,0,0-1.21c0-.42.07-.84,0-1.25a1.81,1.81,0,0,1,.07-.85c.16-.12.18-.24,0-.38,0-.63-.75-.77-1-1.28a.27.27,0,0,1,.13-.24c.73,0,.74-.4.49-.93.38-.41.09-.83,0-1.24a1.07,1.07,0,0,0,.15-1.11A.63.63,0,0,1,37.9,28.86Z"/><path class="cls-1" d="M7.68,11.85c-.21.28-.11.6-.11.9q0,6.48,0,13c.15.3.24.58-.24.66q0-7.36,0-14.72a3.85,3.85,0,0,0-.2-.9c-.09-.35.12-.41.4-.42a1,1,0,0,1,.27.79.23.23,0,0,0,0,.38C7.86,11.65,7.84,11.78,7.68,11.85Z"/><path class="cls-1" d="M17.29,3.72c-.32.63-1,.84-1.51,1.17-.17-.08.19-.34-.06-.31a4.43,4.43,0,0,1-1.54-.1c-.79-.2-1.27,0-1.39.88a.3.3,0,0,1-.29.08c-.19-.14-.33-.29-.23-.55-.05-.75.27-1,1-1C14.64,3.9,16,4.2,17.29,3.72Z"/><path class="cls-1" d="M5,27.87v.36a1.85,1.85,0,0,1-1.46,0L3.23,28c.66-.38.57-1.05.6-1.66,0-.31-.07-.62.15-.89a.5.5,0,0,1,.33.23c.12.27.23.56.54.67a.55.55,0,0,1,.19.18l0,.43C4.47,27.4,4.47,27.4,5,27.87Z"/><path class="cls-1" d="M38,27.61h-.27a2.64,2.64,0,0,0-1.19-.45,15.61,15.61,0,0,1,.05-1.72c0-.32.24-.7.64-.67s.5.39.54.67C37.92,26.15,38,26.88,38,27.61Z"/><path class="cls-1" d="M34.06,8.52h-.25c-.53.34-.42.89-.47,1.39l-.26.29a.18.18,0,0,1-.15.18l-.31.24a2.61,2.61,0,0,1-1.74-2,.24.24,0,0,1,.2-.18c.56.56.89,1.34,1.67,1.78.25-.59-.07-1.16.21-1.65S33.66,7.64,34.06,8.52Z"/><path class="cls-1" d="M26.36,5.25a4.78,4.78,0,0,1-1.8-1.32c1.22.41,2.49.12,3.72.25-.28.71-.91.36-1.39.45-.23.05-.83-.27-.4.42A.18.18,0,0,1,26.36,5.25Z"/><path class="cls-1" d="M9.25,10.76l-.23,0c-.17,0-.33.15-.5,0a.86.86,0,0,1-.27-.73L8.31,10a.2.2,0,0,1,.24,0c.24.36.47.58.84.11S10.31,9,10.77,8.44a.27.27,0,0,1,.2.2A3.3,3.3,0,0,1,9.25,10.76Z"/><path class="cls-1" d="M12.27,4.9l.24.48A4.93,4.93,0,0,1,12,7.24c-.37.44-.44,1.13-1.11,1.33l-.16-.13A17.32,17.32,0,0,0,12.27,4.9Z"/><path class="cls-1" d="M8.41,8.91c-.1-.2-.06-.53-.38-.5s-.29.27-.29.47c0,.4,0,.8,0,1.2-.61-.39-.47-.91-.28-1.45.11-.3.27-.63.59-.63s.51.32.55.65S8.61,8.93,8.41,8.91Z"/><path class="cls-1" d="M4.16,25.75,4,25.5c0-.38.24-.74.57-.75s.57.47.65.82.26.73-.15,1H4.94C4.53,26.45,5,25.48,4.16,25.75Z"/><path class="cls-1" d="M9.82,27.19a2.38,2.38,0,0,0-2.5-.5v-.32c.26-.15.2-.42.24-.66a.21.21,0,0,0,.14,0l.12,0c.1.08.19.18.29.25.51.18,1.12-.08,1.59.34a.93.93,0,0,1,.24.54A.42.42,0,0,1,9.82,27.19Z"/><path class="cls-1" d="M26.6,4.39c.55-.19,1.15.12,1.68-.21.42,0,.88-.22,1.23.19a.64.64,0,0,1-.37.38C28.27,4.77,27.34,5.24,26.6,4.39Z"/><path class="cls-1" d="M29.32,4.59l.19-.22.68,2.47a.31.31,0,0,1-.27.05c-.5-.37-.5-1-.83-1.49A.85.85,0,0,1,29.32,4.59Z"/><path class="cls-1" d="M3.37,40.94a6.45,6.45,0,0,1-3.31,0Z"/><path class="cls-1" d="M20.2.81C20,1.55,19.42,1.91,19,2.39,19.06,1.62,19.67,1.25,20.2.81Z"/><path class="cls-1" d="M30,6.85h.21l.9,1.6-.15.13A1.62,1.62,0,0,1,30,6.85Z"/><path class="cls-1" d="M18.87,2.48c-.53.41-.81,1.15-1.58,1.25A2.75,2.75,0,0,1,18.87,2.48Z"/><path class="cls-1" d="M8.41,8.91l.2-.25A1,1,0,0,1,8.55,10l-.13,0Z"/><path class="cls-1" d="M24.57,3.94a1.71,1.71,0,0,1-1.26-1.16A3.15,3.15,0,0,1,24.57,3.94Z"/><path class="cls-1" d="M36.19,27.43l0,.26c-.62-.05-1.25-.08-1.47-.83a.51.51,0,0,1,.1-.13Z"/><path class="cls-1" d="M22.28,2c-.42-.41-.92-.75-1.05-1.37A1.92,1.92,0,0,1,22.28,2Z"/><path class="cls-1" d="M21.25.62c-.46-.47-.71.15-1.06.21a.85.85,0,0,1,.6-.82C21.07-.06,21.28.27,21.25.62Z"/><path class="cls-1" d="M3.58,28.2l1.46,0,33,0c-.16.36-.48.2-.72.2H4.21c-.23,0-.49.1-.69-.09a.08.08,0,0,1,0-.07A.4.4,0,0,1,3.58,28.2Z"/><path class="cls-1" d="M24.36,40.7a6,6,0,0,0,2.14.12c2.72,0,5.45,0,8.17,0a.43.43,0,0,1,.48.06h0c-.29.38-.7.22-1.06.22H7.2c-.37,0-.76.1-1.09-.18l.37-.05A2.2,2.2,0,0,1,8,40.62c3.15,0,6.29.07,9.44-.06a1.2,1.2,0,0,1,.38,0,3.92,3.92,0,0,0,.73.07c1.56,0,3.12,0,4.68,0l.5,0a4.43,4.43,0,0,1,.47.07Z"/><path class="cls-1" d="M35.16,40.91l-.48-.06a.6.6,0,0,0,0-.54c.17-.08.22-.15,0-.24.09-3.79.15-7.59,0-11.38l.45.17Z"/><path class="cls-1" d="M6.67,28.85l.06,11.2a.28.28,0,0,0-.23.28l.05.08-.07.07c-.3-.13-.2-.41-.2-.63q0-5.5,0-11Z"/><path class="cls-1" d="M6.52,40.77c3.3,0,6.61,0,9.91,0,.29,0,.83.28.82-.41.22-.09.22-.18,0-.27l.07-1c.07-.16.17-.28.37-.23a.63.63,0,0,1,.2.27,2,2,0,0,1-.18,1.63,1.75,1.75,0,0,1-1,.22l-10.25,0Z"/><path class="cls-1" d="M4,36.33c.07-.39-.63-.87.14-1.17.25,0,.47,0,.46.3.4.31.9.57.58,1.24L4,36.32Z"/><path class="cls-1" d="M4.57,40.31c-.35-.38-1-.61-.73-1.31,1.64.64,1.7.72,1.07,1.44A.3.3,0,0,1,4.57,40.31Z"/><path class="cls-1" d="M4,36.32c.07.39.42.38.69.5.53.23.53.24.56,1-1.29-.19-1.55-.51-1.23-1.5Z"/><path class="cls-1" d="M3.85,37.7c.36.15.7.31,1,.44a.59.59,0,0,1,.32.84c-.13.28-.48.07-.68,0A1,1,0,0,1,3.85,37.7Z"/><path class="cls-1" d="M24.53,37.17a9.79,9.79,0,0,1-.15,2.75l-.19-.24c-.47-.43-.29-1-.26-1.48a4.07,4.07,0,0,1,.32-.95A.21.21,0,0,1,24.53,37.17Z"/><path class="cls-1" d="M4.57,40.31l.33.13.17.43a1.73,1.73,0,0,1-1.18-.08.51.51,0,0,1-.07-.46c.16-.41.36.12.56,0A.52.52,0,0,1,4.57,40.31Z"/><path class="cls-1" d="M5.08,29.53c-.16-.44-.78-.23-1-.77.39,0,.78-.18,1.08.11s.06.45-.12.64Z"/><path class="cls-1" d="M9.63,26.62c-.5-.63-1.37.15-1.87-.49a1.52,1.52,0,0,1,1.08-.25H32.91a2.39,2.39,0,0,1,.62.07,1,1,0,0,1,.35.21l-.21.45c-.41.3-.92.16-1.36.33a1.27,1.27,0,0,1-.26.13,1.14,1.14,0,0,1-.57-.07l-.28-.09c-.48-.12-1,0-1.46-.15a5,5,0,0,0-1.89-.07,1.37,1.37,0,0,1-.28,0,1.92,1.92,0,0,0-.69.06,11.09,11.09,0,0,0-1.41.17l-.27.1c-.38,0-.76.59-1.15,0-.17-.08.29-.31,0-.29s-.66.1-1,.13a4.19,4.19,0,0,1-.77-.16,49.26,49.26,0,0,0-5.7,0l-.61.17a1.15,1.15,0,0,1-.3,0,2.79,2.79,0,0,0-1.38,0L14,27a1.64,1.64,0,0,1-.42,0l-.27-.06a2.37,2.37,0,0,0-1.19-.05,1.21,1.21,0,0,1-.26,0,.83.83,0,0,1-.25-.07.94.94,0,0,0-.64,0A1.92,1.92,0,0,1,9.63,26.62Z"/><path class="cls-1" d="M33.88,26.16h-.19a2.14,2.14,0,0,0-1.4-.2H9.19a2.16,2.16,0,0,1-1.41-.19l-.08,0,.07-.43a.48.48,0,0,1,.33-.07,2.28,2.28,0,0,0,.87.19H31.75a2.74,2.74,0,0,1,1.13.08C33.27,25.64,34,25.23,33.88,26.16Z"/><path class="cls-1" d="M32.87,25.52H8.57a.15.15,0,0,1,0-.23l24.28,0Q32.87,25.43,32.87,25.52Z"/><path class="cls-1" d="M32.69,12.27a2.13,2.13,0,0,1-1.12.11H9.81c-.41,0-.82.06-1.23.09a.14.14,0,0,1-.08-.14q0-.08,0-.08Z"/><path class="cls-1" d="M8.54,12.25l0,.22V25.3l0,.23c-.21,0-.44.06-.59-.17l.17-.06a1.67,1.67,0,0,0,.11-1c0-3.6,0-7.2,0-10.79a2.18,2.18,0,0,1,.09-1Z"/><path class="cls-1" d="M8.35,12.48c0,4,0,8.08,0,12.12,0,.23.18.57-.21.71V12.49Z"/><path class="cls-1" d="M32.85,25.31l0-12.86.18,0a.65.65,0,0,1,.11.28q0,6.14,0,12.27a.55.55,0,0,1-.12.28l-.1,0Z"/><path class="cls-1" d="M33.05,25.3q0-6.42,0-12.83l.2,0,0,12.87Z"/><path class="cls-1" d="M25.6,7.52c.64.06.92-.34,1.08-.89.5.15.56.8,1.1.84s.77-.45,1.05-.88c.39.86-.81.87-.7,1.52a.42.42,0,0,1-.34.23A1.44,1.44,0,0,0,26,7.88l-.41-.21A.71.71,0,0,1,25.6,7.52Z"/><path class="cls-1" d="M14.18,7.88c-.62.2-1.41.31-.72,1.26a2.75,2.75,0,0,1-1.37-1.52c.5.43,1,.73,1.57.08.12-.13.35-.27.51,0A.6.6,0,0,1,14.18,7.88Z"/><path class="cls-1" d="M14.59,10.79c.47-.65,1.07-.33,1.65-.24l-.18.44a1.57,1.57,0,0,1-1.16-.18Z"/><path class="cls-1" d="M14,10.88a1.22,1.22,0,0,0-1.4.13l-.3,0C12.82,10.54,13.35,9.85,14,10.88Z"/><path class="cls-1" d="M25.8,10.58c.63-.48,1.05-.06,1.48.35l-.25.26c-.27-.3-.8,0-1-.45Z"/><path class="cls-1" d="M8.77,11.4l-1,0c-.14-.07-.2-.14,0-.22.37,0,.74.07.89-.4.13,0,.24-.31.39,0C8.91,11,8.72,11.14,8.77,11.4Z"/><path class="cls-1" d="M28.7,27.63l-1.64-.84a.1.1,0,0,1-.05-.16c.16-.27.33-.3.5,0a2,2,0,0,0,.69.16c.12,0,0-.15,0,0s-.12,0-.19,0-.26-.07-.32-.21a2.53,2.53,0,0,1,2.11.1v.14l-.07.12c-.26.25-.62.39-.82.72Z"/><path class="cls-1" d="M13.33,26.77h.23c-.42.74.45.51.62.81-.76.76-1.38-.06-2.07-.18-.15-.21-.54-.24-.45-.63l.25,0C12.38,26.77,12.85,26.79,13.33,26.77Z"/><path class="cls-1" d="M11.68,26.81c-.28.25-1,.05-.79.81-.31-.07-.7.14-.92-.25l-.15-.17v-.32c.46-.16,1,0,1.41-.27.1-.06.21-.19.29-.18S11.66,26.66,11.68,26.81Z"/><path class="cls-1" d="M30.32,27.36l-.6-.54.07-.07c.54,0,1.07.08,1.61,0l.24,0c.17.43-.35.4-.44.65C30.86,27.91,30.59,27.57,30.32,27.36Z"/><path class="cls-1" d="M14.4,27.44c.14-.42-.46-.32-.45-.65l.26,0c.47,0,.94,0,1.41,0h.23c0,.37-.64.36-.54.82C15,27.58,14.66,27.73,14.4,27.44Z"/><path class="cls-1" d="M32.47,27.44c.17-.45-.36-.23-.43-.44v-.25a2.67,2.67,0,0,0,1.46.24l-1,.71Z"/><path class="cls-1" d="M36.18,40.9l.05-.81a.19.19,0,0,1,.25,0c.26.62.82.59,1.35.62.15-.14.15-.14.3.19A2,2,0,0,1,36.18,40.9Z"/><path class="cls-1" d="M22.06,3.52c0-.21.53-.27.09-.63s-.91-.65-.93-1.28L23.6,4c-.53.19-.49.92-1.14,1.1-.38.1.45.4.24.76-.58,0-.87-.32-1.11-.77a.52.52,0,0,1,.21-.34c.18-.15.49-.1.59-.38S22.17,3.79,22.06,3.52Z"/><path class="cls-1" d="M20.42,1.57a2.22,2.22,0,0,1-.93,1.29c-.45.36,0,.46.1.67-.1.08-.12.23-.24.3a1.78,1.78,0,0,1-.62.19c-.21,0-.3-.16-.4-.3l-.07,0Z"/><path class="cls-1" d="M26.88,5.32c-.43,1-.43,1-1.08.28.21-.07.76.4.56-.35l.13-.13A.43.43,0,0,1,26.88,5.32Z"/><path class="cls-1" d="M36.37,40.09h-.13v-7.9a.29.29,0,0,1,.24-.09.63.63,0,0,1,.42.65.47.47,0,0,0-.12.13c-.18.87.76.88,1.07,1.38.17.13.07.2-.06.25-.26.41-.89-.36-1.06.33a4.47,4.47,0,0,0-.06.52c0,.27.07.53.06.81-.31,1,.71,1.25,1.13,1.83a.75.75,0,0,0,0,.16c-.33.42-.68,0-1,0,0,.31.33.5.26.82-.35.18-.34.53-.38.86A.4.4,0,0,1,36.37,40.09Z"/><path class="cls-1" d="M27.27,30.5c-.85,2.31-.26,4.7-.41,7,0,.4.28.4.57.4,1.48,0,3,0,4.45,0,.41,0,.54-.16.54-.55,0-1.76,0-3.52,0-5.28,0-.71-.58-1.23-.62-1.92a2.57,2.57,0,0,1,.86,2c0,1.76,0,3.52,0,5.28,0,.56-.2.7-.72.69-1.55,0-3.11,0-4.66,0-.56,0-.7-.2-.69-.72,0-1.76,0-3.52,0-5.28A1.75,1.75,0,0,1,27.27,30.5Z"/><path class="cls-1" d="M26.73,38.53c1.86-.17,3.72.06,5.59-.17,0,.52-.31.37-.5.41-.57.09-1.29-.31-1.59.64a2.06,2.06,0,0,1-1.34,0C28.44,38.23,27.37,39.06,26.73,38.53Z"/><path class="cls-1" d="M9.32,38.56h5.62c-.18.37-.53.16-.79.2-.46.08-1-.23-1.28.56-.13.35-1.39.23-1.46,0-.33-1-1.06-.46-1.6-.59l-.48-.09Z"/><path class="cls-1" d="M14.82,37.81l0-6c.48.22.2.64.24,1a19,19,0,0,0,.08,2.13c0,1.1.27,2.22-.19,3.29C14.89,38.06,14.88,37.93,14.82,37.81Z"/><path class="cls-1" d="M9.38,31.77l0,6.21c0,.13-.14.14-.22.2A5.18,5.18,0,0,1,9,35.7,17.53,17.53,0,0,0,9,32l.16-.47C9.29,31.55,9.31,31.68,9.38,31.77Z"/><path class="cls-1" d="M15.18,34.87c-.33-.65-.08-1.34-.16-2,0-.36.12-.76-.17-1.08a3,3,0,0,0-1.91-2.28c-.2-.08-.38-.16-.4-.41a3.33,3.33,0,0,1,2.67,3.42C15.22,33.29,15.19,34.08,15.18,34.87Z"/><path class="cls-1" d="M17.51,38.83l-.18.19c-.06-2-.13-3.9-.16-5.86a1.65,1.65,0,0,1,.44-1.41,9,9,0,0,1,.18,2.95c0,.79,0,1.58,0,2.36C17.74,37.66,17.94,38.29,17.51,38.83Z"/><path class="cls-1" d="M9.21,38.18l.22-.2a35.36,35.36,0,0,0,5.4-.16l.16.35Z"/><path class="cls-1" d="M24.29,32.19h.27a48.31,48.31,0,0,1,0,5h-.15a1.39,1.39,0,0,1-.31-1.1C24.15,34.78,23.85,33.46,24.29,32.19Z"/><path class="cls-1" d="M9.38,31.77l-.22-.25c.31-.92.63-1.83,1.76-2A4.8,4.8,0,0,0,9.38,31.77Z"/><path class="cls-1" d="M9,32A8.2,8.2,0,0,1,9,35.7Z"/><path class="cls-1" d="M23.43,30.53a8.25,8.25,0,0,0-2.81-.62s-.06-.08,0-.12,0-.06,0-.06A3.19,3.19,0,0,1,23.43,30.53Z"/><path class="cls-1" d="M20.62,29.73q0,.09,0,.18l-2,.76C19,29.84,19.88,29.88,20.62,29.73Z"/><path class="cls-1" d="M31.29,29.71a6.56,6.56,0,0,0-2.57-.43A2.1,2.1,0,0,1,31.29,29.71Z"/><path class="cls-1" d="M36.91,31.57c-.43,0-.52.24-.48.6h-.2a1.69,1.69,0,0,1,.17-1.28Z"/><path class="cls-1" d="M23.44,40.86a10.28,10.28,0,0,0,.27-3.14.75.75,0,0,0-.08-.26c-1.3.77-1-1.31-2-1.12,0,0-.16-.14-.16-.21a.33.33,0,0,1,.35-.3c.63,0,1.31-.19,1.87.29a.2.2,0,0,1,.25,0,1.82,1.82,0,0,1,0,1.1,25.91,25.91,0,0,0,0,3.68Z"/><path class="cls-1" d="M18.09,38c.2.94-.22,2,.32,2.86a.4.4,0,0,1-.5-.17c-.23-.62,0-1.28-.13-1.91a1,1,0,0,1,0-.68A.2.2,0,0,1,18.09,38Z"/><path class="cls-1" d="M17.88,38.64l0,2-.1,0-.1,0,0-1.83C17.6,38.65,17.69,38.6,17.88,38.64Z"/><path class="cls-1" d="M16.08,21.41c-.15-.52.25-1.2-.46-1.56a.31.31,0,0,1,0-.36c2.95-.14,5.9,0,8.85-.06a3,3,0,0,0,1.5-.27c.4.44.12.64-.28.8-.16,0-.21.18-.29.31-.35.47.09,1.23-.57,1.6a.66.66,0,0,1-.4-.41c-.19-.34,0-.84-.44-1.08-.16-.06-.3-.08-.38.12-.1.88.06,1.77-.09,2.65-.11.19-.16.5-.5.28-.06-1.05,0-2.1,0-2.8-.09.69,0,1.74,0,2.79a.38.38,0,0,1-.47.13c-.44-.44-.24-1-.31-1.53s.18-1-.24-1.44a1.1,1.1,0,0,0-.57-.14h-.92c-.25,0-.51,0-.76,0a1.23,1.23,0,0,1-.42-.1c-.1-.15-.21-.21-.36-.05a.78.78,0,0,1-.39,0,1.29,1.29,0,0,0-.76,0c-.22.05-.44.07-.67.1-.69.14-.2,1-.72,1.21C16.21,21.67,16.14,21.54,16.08,21.41Z"/><path class="cls-1" d="M16.08,21.41l.18.2c.33.32.17.77.28,1.14s.25.17.38,0a.4.4,0,0,1,.34-.17c.23.11.21.49.53.5a4.08,4.08,0,0,0,.11-2.78l0-.14c.22-.28.45-.36.67,0,.39.71.07,1.48.19,2.1.11-.62-.21-1.39.19-2.1.08-.2.16-.2.24,0,.44.66.2,1.4.22,2.1,0,.14,0,0,0,.1s.11,0,.18,0a.33.33,0,0,1,.25,0c.08,0,.12.25.16.09s0-.53.23-.73a.32.32,0,0,1,.27.06c.32.34,0,.9.49,1.26.39-.51.06-1.19.41-1.67a.31.31,0,0,1,.26-.07c.45.45.18,1,.33,1.55a.8.8,0,0,0,.32.12c.13.12.05.32.18.44h.6c.21-.05.22-.25.28-.41a.23.23,0,0,1,.23,0,1,1,0,0,0,.31.16.4.4,0,0,0,.31-.12c.26-.53-.13-1.21.41-1.66l.17.41c.46.32-.07,1.22.76,1.33a.45.45,0,0,1,.24.12.32.32,0,0,1,.05.17c.06.25-.11.35-.3.44a32.3,32.3,0,0,1-4.44.1c-1.69,0-3.38,0-5.08,0a.58.58,0,0,1-.37-.11C16.22,23.13,16,22.24,16.08,21.41Z"/><path class="cls-1" d="M15.65,23.88h.19c2.62.24,5.24.07,7.86.09.62,0,1.32.25,1.87-.29l.25-.25c.25.59.2,1-.54,1.18-2.11.52-4.25.3-6.38.41A22.48,22.48,0,0,1,16,24.58C15.6,24.55,15.63,24.19,15.65,23.88Z"/><path class="cls-1" d="M9.4,15.56c-.15,1.87,0,3.73,0,5.6,0,.56.2.7.73.69,1.56,0,3.11,0,4.67,0,.21,0,.33,0,.24.25a34.41,34.41,0,0,1-5.55.17c-.43,0-.48-.33-.48-.65,0-.76,0-1.52,0-2.28A15.05,15.05,0,0,0,9,16,.5.5,0,0,1,9.4,15.56Z"/><path class="cls-1" d="M22.93,18.88a.38.38,0,0,0,.17,0,.34.34,0,0,1,.45,0h.79c.37-.33.76-.63,1.31-.44.25.16.13.45.25.66-3.06,0-6.12,0-9.18,0-.38,0-.85-.18-1.07.35l0,.35c-.44-.43-.14-.7.21-1a1.23,1.23,0,0,1,1.29-.45.72.72,0,0,0,.88.45c.5-.1.27-.48.3-.74,0-.44,0-.89.06-1.33a.11.11,0,0,1,.19,0v2h.32l.14-2a.21.21,0,0,1,.29.11c.39,1.67.39,1.67,2.26,1.68a6.31,6.31,0,0,1,.92,0A1.22,1.22,0,0,1,22.93,18.88Z"/><path class="cls-1" d="M26.87,21.77c1.84,0,3.69.14,5.53,0,.15,0,.16.14.22.23-.07.27-.3.25-.5.25l-5,0a.42.42,0,0,1-.43-.21C26.73,21.93,26.74,21.79,26.87,21.77Z"/><path class="cls-1" d="M26.84,22.41a46.82,46.82,0,0,0,5.77,0c-.55.43-.94.25-1.29.29s-.88-.22-.85.55c0,.26-1.61.34-1.63.08-.06-1-.76-.54-1.21-.61a5.17,5.17,0,0,0-.8,0Z"/><path class="cls-1" d="M14.84,15.78a2.83,2.83,0,0,0-2.79-2.31,2,2,0,0,1-.57-.19c1.61-.62,3.66,1,3.73,2.92,0,1.23,0,2.47,0,3.71-.47-.11-.25-.49-.26-.74C14.86,18,15,16.91,14.84,15.78Z"/><path class="cls-1" d="M9.25,22.55h5.6s-.1.1-.14.09c-1.08-.27-1.9.48-2.84.74-.17,0-.45.13-.47,0C11.09,22.13,10,22.92,9.25,22.55Z"/><path class="cls-1" d="M26.87,21.77l-.22.23c0-1.92-.14-3.84-.09-5.76,0-.61-.11-1.49.89-1.67a2.79,2.79,0,0,0-.62,1.92C26.86,18.25,26.86,20,26.87,21.77Z"/><path class="cls-1" d="M14.84,15.78c.37.89.07,1.83.17,2.74.05.47-.16,1,.17,1.4A4.21,4.21,0,0,1,15,22.05l-.24-.25Z"/><path class="cls-1" d="M23.55,18.88H23.1a4.89,4.89,0,0,0-.94-4c1.23.57,1.2,1.75,1.32,2.82C23.53,18.12,23.51,18.51,23.55,18.88Z"/><path class="cls-1" d="M32.62,22l-.22-.23,0-6c.28.08.21.32.21.51C32.66,18.19,32.64,20.09,32.62,22Z"/><path class="cls-1" d="M25.65,18.45l-1.31.44.2-.57c.11-.31.15-.71.62-.65S25.57,18.14,25.65,18.45Z"/><path class="cls-1" d="M17.13,18.45l-1.29.45c.06-.2.12-.39.17-.59s.19-.71.64-.65S17.11,18.1,17.13,18.45Z"/><path class="cls-1" d="M18.55,16.82h-.19A3.25,3.25,0,0,1,20,14.38a.17.17,0,0,1,0,.26A4.6,4.6,0,0,0,18.55,16.82Z"/><path class="cls-1" d="M25.78,23.26h-.15a3.53,3.53,0,0,1-.26-3.08l.34-.23C25.32,21.06,25.93,22.15,25.78,23.26Z"/><path class="cls-1" d="M9,16a7.28,7.28,0,0,1,0,3.29Z"/><path class="cls-1" d="M32.15,14.75c-.76-.26-1.09-1.2-2-1.28,0-.19,0-.29.22-.21A2.65,2.65,0,0,1,32.15,14.75Z"/><path class="cls-1" d="M30.4,13.26l-.22.21c-.43-.08-.93.25-1.31-.19A1.37,1.37,0,0,1,30.4,13.26Z"/><path class="cls-1" d="M20,14.65l0-.26c.81-.38,1.58-.55,2.08.47A1.77,1.77,0,0,0,20,14.65Z"/><path class="cls-1" d="M18.21,9.45c1.74.06,3.47-.13,5.23-.1-.11.52-.45.33-.69.36-.45.05-.9-.18-1.15.57-.15.45-1,0-1.51.14C19.89,9.25,18.77,10,18.21,9.45Z"/><path class="cls-1" d="M18.33,8.7a35.17,35.17,0,0,0,5,0c.13,0,.14.15.19.23-.38.45-.9.2-1.34.21-1.13,0-2.25,0-3.38,0C18.51,9.12,18,9.27,18.33,8.7Z"/><path class="cls-1" d="M19.4,3.7l.2-.17c.37.06.32.66.77.61a.39.39,0,0,1,.47,0c.18.84-.65.51-.94.8s-.63-.14-.93,0a1,1,0,0,1-.64-1.21l.41.21C19.09,4.22,19.29,4.08,19.4,3.7Z"/><path class="cls-1" d="M23.48,8.91l-.19-.23a5.31,5.31,0,0,0-.6-2.88C23.71,6.64,23.6,7.78,23.48,8.91Z"/><path class="cls-1" d="M19,4.94c.24-.27.56-.12.84-.15.06.08.2.07.2.2L18.74,6.13c-.12-.41.2-.59.43-.81S19.14,5,19,4.94Z"/><path class="cls-1" d="M26,8a1.21,1.21,0,0,0,1.67.26c-.08.41-.56.67-.41,1.16C27,8.87,26,8.86,26,8Z"/><path class="cls-1" d="M27,5.2c.2-.48.45-.42.72-.06a1,1,0,0,0,1.44.25c-.32.71-.84.51-1.3.22C27.57,5.43,27.34,5.19,27,5.2Z"/><path class="cls-1" d="M27.37,9.54a1.56,1.56,0,0,0,1.57-.44C28.51,10,28.26,10.12,27.37,9.54Z"/><path class="cls-1" d="M22.47,26.55h-6.2a4.08,4.08,0,0,1,2.22-.17A14.54,14.54,0,0,1,22.47,26.55Z"/><path class="cls-1" d="M25.41,26.77c.55.4,1.1.17,1.65,0-.65.8-1.31.53-2,0Z"/><path class="cls-1" d="M20.77,4.15h-.4a.29.29,0,0,1,0-.1c.19-.44-.41-1.26.41-1.32s.26.84.54,1.22a.51.51,0,0,1-.3.3A.26.26,0,0,1,20.77,4.15Z"/><path class="cls-1" d="M22.06,3.52a.83.83,0,0,1,.63,1,1,1,0,0,1-.76.08c-.45-.07-.3-.31-.09-.52Z"/><path class="cls-1" d="M21.84,4.13c-.13.94.64.16.86.44-.22.33-.57.15-.85.22-.52.08-.84-.07-.78-.67l.27-.19C21.49,4,21.61,4.21,21.84,4.13Z"/><path class="cls-1" d="M21.05,4.13c.25.24.36.63.78.67L21.65,5A2.17,2.17,0,0,0,20,5l-.2-.2c.32-.22.86-.1,1-.64Z"/><path class="cls-1" d="M19.4,3.7c0,.29.6.55.17.8s-.76,0-.83-.55C18.9,3.7,19.16,3.73,19.4,3.7Z"/><path class="cls-1" d="M36.54,34.91l1.14.6c-.49.48-.82-.34-1.27-.16C36.4,35.18,36.37,35,36.54,34.91Z"/><path class="cls-1" d="M31,30.65c-1-.75-1.06-.75-1.27.09-.1.2-.23.32-.46.2-.38-.52-.71-.26-1,.1a2.36,2.36,0,0,0-.31,2.6,7.37,7.37,0,0,0,0,1.78c-.08.12-.27.16-.25.36a.32.32,0,0,1,.33-.29c.56.66.19,1.22-.2,1.77-.12.12-.25.23-.44.15a23.57,23.57,0,0,1-.09-5.64,2.43,2.43,0,0,1,2.38-2.06C30.3,29.76,30.89,29.89,31,30.65Z"/><path class="cls-1" d="M31.39,33.76c.62-.51-.11-1.36.46-1.88a5.38,5.38,0,0,1,.16,2.6,9.37,9.37,0,0,1-.17,2.93.52.52,0,0,1-.35-.26A5.66,5.66,0,0,1,31.39,33.76Z"/><path class="cls-1" d="M31.59,37.16l.25.24a11.45,11.45,0,0,1-4.42,0l.26-.26A5.41,5.41,0,0,1,31.59,37.16Z"/><path class="cls-1" d="M9.84,37.36q0-2.46-.06-4.93a1.84,1.84,0,0,1,.39-1.34.38.38,0,0,1,.19.21,7.48,7.48,0,0,1-.11,1.53c0,.38.11.57.48.6a3.39,3.39,0,0,0,.07,2.47c.24.56-.17,1-.58,1.32C10.13,37.33,10,37.43,9.84,37.36Z"/><path class="cls-1" d="M13.59,30.49a2,2,0,0,1,.82,1.69c0,1.73,0,3.45-.06,5.18-.19.07-.26-.06-.33-.19a1.43,1.43,0,0,1-.08-.42,1.62,1.62,0,0,0-.29-1,8.53,8.53,0,0,0-.14-2.27c.88-.4.31-1.1.31-1.67,0-.36-.38-.65-.38-1A.37.37,0,0,1,13.59,30.49Z"/><path class="cls-1" d="M14.14,37.13l.21.22a9.25,9.25,0,0,1-4.5,0l.21-.23A6.49,6.49,0,0,1,14.14,37.13Z"/><path class="cls-1" d="M11.45,29.89a1.68,1.68,0,0,1,2.14.6.21.21,0,0,1-.1.09c-.43.17-.72-.22-1.09-.29a1.34,1.34,0,0,0-.48-.07.71.71,0,0,1-.25,0A.42.42,0,0,1,11.45,29.89Z"/><path class="cls-1" d="M11.45,29.89l.23.15a2.38,2.38,0,0,1-1.38,1.15.28.28,0,0,1-.13-.1A1.89,1.89,0,0,1,11.45,29.89Z"/><path class="cls-1" d="M24.12,35.27c-.21.26-.12.58-.2.87l-.23,0c0-.72.06-1.45.13-2.16.14-1.45-.09-2.69-1.66-3.27-.2-.07-.07-.22,0-.34a3.21,3.21,0,0,1,2,2.07A6.91,6.91,0,0,1,24.12,35.27Z"/><path class="cls-1" d="M20.2,30.53l-1.67.94A1.48,1.48,0,0,1,20.2,30.53Z"/><path class="cls-1" d="M17.95,38c-.15-.63.09-1.3-.21-1.91,0-.89,0-1.77,0-2.66,0-.32-.15-.69.21-.94,0,1.84.26,3.67.17,5.52h-.14Z"/><path class="cls-1" d="M19.58,31.66c.05.19-.09.3-.16.45s-.55.7,0,.87c.32.1,1,.35,1.1-.29.09-.39.26-1-.57-1-.07,0-.15-.11-.23-.17.84-.44,1.18-.16,1.1.75,0,.3,0,.61,0,.91a1.71,1.71,0,0,1-1.26.27c-.53-.06-.82-.31-.66-.88A1.09,1.09,0,0,1,19.58,31.66Z"/><path class="cls-1" d="M22.9,33.65a1.38,1.38,0,0,1,.07,1.6c-.4.41-1.14.27-1.74.07-.08-.19,0-.29.17-.38.87,0,1.06-.63,1.23-1.29A.21.21,0,0,1,22.9,33.65Z"/><path class="cls-1" d="M21.2,31.51c1.24-.21,1.75.24,1.89,1.69a1.71,1.71,0,0,1-1.87.08v0c-.07-.18,0-.28.17-.36a1.74,1.74,0,0,1,.29-.09c.21-.05.53,0,.57-.28S22,32.11,21.7,32a2.35,2.35,0,0,1-.37-.14C21.2,31.79,21.12,31.68,21.2,31.51Z"/><path class="cls-1" d="M20.63,33.6a1.93,1.93,0,0,1,0,1.75c-.18.08-.28,0-.34-.17a1.79,1.79,0,0,1,0-.41c0-.3,0-.58-.41-.6s-.46.24-.49.54a1.66,1.66,0,0,1-.09.4c-.08.14-.17.25-.35.19a4.49,4.49,0,0,1,0-1.66A1.87,1.87,0,0,1,20.63,33.6Z"/><path class="cls-1" d="M20.63,33.6l-1.68,0c-.15-.34-.38-.67,0-1,0,.41,0,.75.59.68s.89,0,1.33-.07Z"/><path class="cls-1" d="M21.21,33.28l1.87-.08-.19.46-.06,0-.06,0a2.19,2.19,0,0,1-1.21.3c-.16,0-.32,0-.33-.25Z"/><path class="cls-1" d="M21.24,33.71l.18.17a.85.85,0,0,1,.05,1.2l-.25.24A1.57,1.57,0,0,1,21.24,33.71Z"/><path class="cls-1" d="M21.48,33l-.26.24a2,2,0,0,1,0-1.73l.26.27A.94.94,0,0,1,21.48,33Z"/><path class="cls-1" d="M20.42,35.12l.25.22a2.09,2.09,0,0,1-1.7,0l.21-.22A.88.88,0,0,1,20.42,35.12Z"/><path class="cls-1" d="M31.88,21.26c-.21.43-.61.24-.92.24-.73,0-1.45,0-2.18,0-1.72,0-1.48.24-1.52-1.48,0-1.18,0-2.35,0-3.53a1.85,1.85,0,0,1,.68-1.64c.3.51-.06,1-.11,1.46a3.94,3.94,0,0,0,0,1.5c.09.92.38,1.8.53,2.71s1.2.27,1.84.39c.3.06.82.21.77-.47,0-.43-.17-.91.39-1.15C32.4,19.72,31.79,20.58,31.88,21.26Z"/><path class="cls-1" d="M31.38,17.76c.51-.53.13-1.19.26-1.78q.12-.16.25,0a20.62,20.62,0,0,1,0,5.28c-.16-.66.14-1.43-.47-2C31.44,18.77,31,18.27,31.38,17.76Z"/><path class="cls-1" d="M29.77,14a5.92,5.92,0,0,0,1,2.89c0,.29-.24.22-.35.13a1.87,1.87,0,0,1-.73-1.3,4,4,0,0,1-.91,1.64c-.25.3-.5.69-1,.46.83-1.19,1.88-2.29,1.62-3.93Z"/><path class="cls-1" d="M31.89,16h-.25a4.08,4.08,0,0,0-1.31-1.87C31.36,14.3,31.67,15.1,31.89,16Z"/><path class="cls-1" d="M10,20.8c0,.18,0,.37.25.37h4c-.95-1-.86-1.6.13-2.35-.07.84.39,2-.21,2.46s-1.58.15-2.4.16c-2.06,0-2.06,0-2-2.09,0-.26-.1-.57.22-.73a1.24,1.24,0,0,1,.45.89A2.13,2.13,0,0,1,10,20.8Z"/><path class="cls-1" d="M12.1,15.55a14.85,14.85,0,0,1-2.07,3c-.71-2.24-.09-4.11,1.46-4.6a.35.35,0,0,1,.08.28A4,4,0,0,0,10.2,17.6a15,15,0,0,1,1.55-2.32.52.52,0,0,1,.3,0,.18.18,0,0,1,.09.16Q12.12,15.55,12.1,15.55Z"/><path class="cls-1" d="M14.4,18.34c-.6-.1-.84-.6-1.11-1l.11-.11a.75.75,0,0,1,.63.34,13.64,13.64,0,0,1-.19-2.24.32.32,0,0,1,.22-.19C14.75,16.11,14.31,17.25,14.4,18.34Z"/><path class="cls-1" d="M11.48,14.12a.54.54,0,0,0,0-.17,2.06,2.06,0,0,1,1.23,0,.23.23,0,0,1,.06.17c0,.06,0,.09,0,.09-.24.36-.14.83-.4,1.18a.19.19,0,0,1-.25,0h-.23C11.35,15.07,11.79,14.48,11.48,14.12Z"/><path class="cls-1" d="M12.72,14.13a.47.47,0,0,1,0-.18A2.13,2.13,0,0,1,14,15.09l-.14.12A1.51,1.51,0,0,1,12.72,14.13Z"/><path class="cls-1" d="M21.48,21.4l0-1.26.69,0a4.53,4.53,0,0,1,.12,2.9c-.17.09-.12.4-.39.38-.25-.67.09-1.4-.2-2.06Z"/><path class="cls-1" d="M20.41,20.14l0,1.68h-.16c-.23.14-.08.56-.44.62h-.16a2.64,2.64,0,0,1,0-2.31Z"/><path class="cls-1" d="M23.48,23h-.14a10.61,10.61,0,0,1,.15-3.08A1,1,0,0,1,23.78,21C23.55,21.69,24.11,22.45,23.48,23Z"/><path class="cls-1" d="M22.24,23.07a12.29,12.29,0,0,0-.12-2.9c.54-.06.39.35.39.62,0,.89,0,1.77,0,2.66C22.21,23.42,22.28,23.22,22.24,23.07Z"/><path class="cls-1" d="M23.07,23.43h-.13V20.28h.13Z"/><path class="cls-1" d="M23.73,21c.1-.39-.18-.69-.22-1.05.19,0,.37,0,.45.21v1.61c0,.27.27.62-.26.67A2.66,2.66,0,0,1,23.73,21Z"/><path class="cls-1" d="M17.69,23.45l.2-3.28c.3,0,.41.16.41.45,0,.71,0,1.42,0,2.13C18.34,23.19,18.17,23.46,17.69,23.45Z"/><path class="cls-1" d="M19.78,22.43c.25-.13,0-.63.44-.62a5.51,5.51,0,0,1-.1,1.64C19.53,23.24,19.88,22.76,19.78,22.43Z"/><path class="cls-1" d="M23.77,22.41l.2-.64a6.5,6.5,0,0,1,.2,1.67h-.46A1.12,1.12,0,0,1,23.77,22.41Z"/><path class="cls-1" d="M23.77,22.41l-.06,1c-.25,0-.14-.27-.22-.41.15-.67-.18-1.4.24-2Z"/><path class="cls-1" d="M17.08,21.55a1.38,1.38,0,0,1,.16,1.11l-.18.2A1.13,1.13,0,0,1,17.08,21.55Z"/><path class="cls-1" d="M21.65,21.39a3.64,3.64,0,0,1,.2,2.06C21.41,22.8,21.75,22.07,21.65,21.39Z"/><path class="cls-1" d="M23.72,24.68H17.54v-.1h6.15Z"/><path class="cls-1" d="M22.93,18.88l-.45,0a.82.82,0,0,1-.24-.65,4.35,4.35,0,0,0-.84-2.87.23.23,0,0,1,.12-.27,3.08,3.08,0,0,1,1.38,2.66C22.94,18.13,22.92,18.5,22.93,18.88Z"/><path class="cls-1" d="M19.15,16.82H19c.58-1.66,1.25-2.12,2.51-1.73a.48.48,0,0,0-.12.16,2.55,2.55,0,0,0-1.7,1.22C19.58,16.67,19.47,16.94,19.15,16.82Z"/><path class="cls-1" d="M22.48,6.84c-1.59,0-1.59,0-1.4-1.61.59.23,1.11.53,1.23,1.23-.25.11-.43-.09-.65-.16.2.14.39.28.64.15C22.56,6.48,22.49,6.67,22.48,6.84Z"/><path class="cls-1" d="M20.66,8.3a1.6,1.6,0,0,1-1.71,0c-.34-.21-.26-.73,0-1.11a.58.58,0,0,1,.35.21c.23.41.69.37,1.06.51a.7.7,0,0,1,.25.33Z"/><path class="cls-1" d="M20.64,5.39a1.54,1.54,0,0,0,0,.4c.17.88-.19,1.22-1.06,1.07a1.43,1.43,0,0,0-.4,0C19,6.43,19,6.33,19.7,6c.1.1,0,.42.21.33.39-.16,0-.44,0-.66A.51.51,0,0,1,20.64,5.39Z"/><path class="cls-1" d="M21,8.3C20.67,6.91,21.63,7,22.49,7c.4.37.21.84.2,1.27-.18.07-.27,0-.36-.16s-.14-.58-.52-.54-.31.33-.43.53S21.21,8.38,21,8.3Z"/><path class="cls-1" d="M19.13,7.46l-.2-.22L19.15,7a1.1,1.1,0,0,0,.3,0c1-.19,1.33.3,1.13,1.25l-.19-.22C20.13,7.56,19.62,7.52,19.13,7.46Z"/><path class="cls-1" d="M22.47,8.08l.22.23c-.5.42-1.09.12-1.64.19a.38.38,0,0,1,0-.19l.22-.22A.93.93,0,0,1,22.47,8.08Z"/><path class="cls-1" d="M30.76,32.76c-.91-.08-.71-1-1.13-1.44-.31.36-.28,1-.77,1.24a1.3,1.3,0,0,1,.51-1.61l.36-.2A9.8,9.8,0,0,0,30.76,32.76Z"/><path class="cls-1" d="M27.89,35.49v1c-.56-.7-.55-.8,0-1Z"/><path class="cls-1" d="M14.15,36.8c-.88-.06-.65-.57-.44-1.08C14.46,35.83,14.08,36.41,14.15,36.8Z"/><path class="cls-1" d="M12.32,30.13l0,1.21h-.4c-.25-.4.1-.81,0-1.21C12,29.89,12.18,29.89,12.32,30.13Z"/><path class="cls-1" d="M10,20.8a1.63,1.63,0,0,1,.42-1.29C10.67,20.05,11,20.65,10,20.8Z"/><path class="cls-1" d="M12.1,15.37h.27a2.25,2.25,0,0,1,1.06,1.81l-.14.12c-.6-.44-.72-1.21-1.19-1.74Q12.1,15.46,12.1,15.37Z"/><path class="cls-1" d="M21,18.45l-.24,0c-.37-.54-.27-1.24-.58-1.8,0-.54.65-.94.81-.75.35.43,1.32.46,1,1.36A1.91,1.91,0,0,0,21,18.45Z"/><path class="cls-1" d="M20.22,16.62c.67.45.64,1.12.58,1.8-.46.05-1,.35-1.31-.16C19.06,17.49,19.87,17.12,20.22,16.62Z"/><path class="cls-1" d="M21,18.45c-.07-.75-.08-1.45,1-1.22C22.52,18.44,22.44,18.53,21,18.45Z"/></g></g></svg>